<?xml version="1.0" encoding="UTF-8" standalone="no"?>
<!-- Generator: Adobe Illustrator 18.0.0, SVG Export Plug-In . SVG Version: 6.00 Build 0)  -->

<svg
   xmlns:dc="http://purl.org/dc/elements/1.1/"
   xmlns:cc="http://creativecommons.org/ns#"
   xmlns:rdf="http://www.w3.org/1999/02/22-rdf-syntax-ns#"
   xmlns:svg="http://www.w3.org/2000/svg"
   xmlns="http://www.w3.org/2000/svg"
   xmlns:sodipodi="http://sodipodi.sourceforge.net/DTD/sodipodi-0.dtd"
   xmlns:inkscape="http://www.inkscape.org/namespaces/inkscape"
   version="1.1"
   id="Capa_1"
   x="0px"
   y="0px"
   viewBox="0 0 290 290"
   style="enable-background:new 0 0 290 290;"
   xml:space="preserve"
   sodipodi:docname="icon.svg"
   inkscape:version="0.92.2 2405546, 2018-03-11"
   inkscape:export-filename="/home/grant/icon.png"
   inkscape:export-xdpi="95.812866"
   inkscape:export-ydpi="95.812866"><metadata
   id="metadata39"><rdf:RDF><cc:Work
       rdf:about=""><dc:format>image/svg+xml</dc:format><dc:type
         rdf:resource="http://purl.org/dc/dcmitype/StillImage" /></cc:Work></rdf:RDF></metadata><defs
   id="defs37" /><sodipodi:namedview
   pagecolor="#ffffff"
   bordercolor="#666666"
   borderopacity="1"
   objecttolerance="10"
   gridtolerance="10"
   guidetolerance="10"
   inkscape:pageopacity="0"
   inkscape:pageshadow="2"
   inkscape:window-width="1920"
   inkscape:window-height="1007"
   id="namedview35"
   showgrid="false"
   inkscape:zoom="0.8137931"
   inkscape:cx="-18.432207"
   inkscape:cy="123.32602"
   inkscape:window-x="0"
   inkscape:window-y="36"
   inkscape:window-maximized="1"
   inkscape:current-layer="Capa_1" />
<rect
   style="opacity:1;fill:#13294b;fill-opacity:1;stroke:none;stroke-width:2;stroke-linejoin:round;stroke-miterlimit:4;stroke-dasharray:none;stroke-dashoffset:0;stroke-opacity:1"
   id="rect852"
   width="1024"
   height="1024"
   x="-367"
   y="-367" /><path
   d="M 350.4891,635 H 297.45421 C 150.04869,635 30.127119,515.07504 30.127119,367.66951 V 254.84787 h -90.609458 c -9.330276,0 -16.896552,-7.56628 -16.896552,-16.89656 v -135.1724 c 0,-9.33029 7.566276,-16.896567 16.896552,-16.896567 H 30.120347 V -328.10344 c 0,-9.33027 7.566286,-16.89656 16.896562,-16.89656 H 182.18932 c 9.33028,0 16.89654,7.56629 16.89654,16.89656 V 85.882343 h 134.44925 c 9.33027,0 16.89654,7.566277 16.89654,16.896567 v 135.1724 c 0,9.33028 -7.56627,16.89656 -16.89654,16.89656 H 199.08586 v 112.82164 c 0,54.23794 44.12704,98.36497 98.3616,98.36497 h 53.03489 c 9.33027,0 16.89654,7.56627 16.89654,16.89656 V 618.10345 C 367.38575,627.43372 359.81938,635 350.4891,635 Z"
   id="path2"
   style="fill:#e74a27;fill-opacity:1;stroke-width:3.37931037"
   inkscape:connector-curvature="0" />
<g
   id="g4">
</g>
<g
   id="g6">
</g>
<g
   id="g8">
</g>
<g
   id="g10">
</g>
<g
   id="g12">
</g>
<g
   id="g14">
</g>
<g
   id="g16">
</g>
<g
   id="g18">
</g>
<g
   id="g20">
</g>
<g
   id="g22">
</g>
<g
   id="g24">
</g>
<g
   id="g26">
</g>
<g
   id="g28">
</g>
<g
   id="g30">
</g>
<g
   id="g32">
</g>
</svg>