<?xml version="1.0" encoding="UTF-8" standalone="no"?>
<!-- Generator: Adobe Illustrator 18.0.0, SVG Export Plug-In . SVG Version: 6.00 Build 0)  -->

<svg
   xmlns:dc="http://purl.org/dc/elements/1.1/"
   xmlns:cc="http://creativecommons.org/ns#"
   xmlns:rdf="http://www.w3.org/1999/02/22-rdf-syntax-ns#"
   xmlns:svg="http://www.w3.org/2000/svg"
   xmlns="http://www.w3.org/2000/svg"
   xmlns:sodipodi="http://sodipodi.sourceforge.net/DTD/sodipodi-0.dtd"
   xmlns:inkscape="http://www.inkscape.org/namespaces/inkscape"
   version="1.1"
   id="Capa_1"
   x="0px"
   y="0px"
   viewBox="0 0 290 290"
   style="enable-background:new 0 0 290 290;"
   xml:space="preserve"
   sodipodi:docname="icon2.svg"
   inkscape:version="0.92.2 2405546, 2018-03-11"
   inkscape:export-filename="/home/grant/Code/College/CS 196/iFeel/iFeel-App/assets/android/icon.png"
   inkscape:export-xdpi="96"
   inkscape:export-ydpi="96"><metadata
   id="metadata39"><rdf:RDF><cc:Work
       rdf:about=""><dc:format>image/svg+xml</dc:format><dc:type
         rdf:resource="http://purl.org/dc/dcmitype/StillImage" /><dc:title /></cc:Work></rdf:RDF></metadata><defs
   id="defs37" /><sodipodi:namedview
   pagecolor="#ffffff"
   bordercolor="#666666"
   borderopacity="1"
   objecttolerance="10"
   gridtolerance="10"
   guidetolerance="10"
   inkscape:pageopacity="0"
   inkscape:pageshadow="2"
   inkscape:window-width="1920"
   inkscape:window-height="1007"
   id="namedview35"
   showgrid="false"
   inkscape:zoom="0.5"
   inkscape:cx="229.54735"
   inkscape:cy="186.96896"
   inkscape:window-x="0"
   inkscape:window-y="36"
   inkscape:window-maximized="1"
   inkscape:current-layer="Capa_1" />
<rect
   style="opacity:1;fill:#13294b;fill-opacity:1;stroke:none;stroke-width:2;stroke-linejoin:round;stroke-miterlimit:4;stroke-dasharray:none;stroke-dashoffset:0;stroke-opacity:1"
   id="rect852"
   width="1024"
   height="1024"
   x="-367"
   y="-367"
   inkscape:export-filename="/home/grant/Code/College/CS 196/iFeel/iFeel-App/assets/ios/icon.png"
   inkscape:export-xdpi="96"
   inkscape:export-ydpi="96"
   ry="512" /><path
   d="M 325.32717,575 H 278.78635 C 149.43048,575 44.193189,469.75974 44.193189,340.40383 v -99.0067 h -79.514426 c -8.187792,0 -14.827584,-6.63982 -14.827584,-14.82764 V 107.94883 c 0,-8.18779 6.639792,-14.8276 14.827584,-14.8276 h 79.508482 v -363.29365 c 0,-8.18775 6.639802,-14.82758 14.827594,-14.82758 H 177.63553 c 8.18782,0 14.82756,6.63983 14.82756,14.82758 V 93.12123 h 117.98609 c 8.18781,0 14.82756,6.63981 14.82756,14.8276 v 118.62066 c 0,8.18782 -6.63975,14.82764 -14.82756,14.82764 H 192.46309 v 99.0067 c 0,47.5966 38.72374,86.32033 86.31732,86.32033 h 46.54085 c 8.18775,0 14.82756,6.63975 14.82756,14.82758 V 560.17243 C 340.15484,568.36018 333.51499,575 325.32717,575 Z"
   id="path2"
   style="fill:#e74a27;fill-opacity:1;stroke-width:2.96551776"
   inkscape:connector-curvature="0" />
<g
   id="g4">
</g>
<g
   id="g6">
</g>
<g
   id="g8">
</g>
<g
   id="g10">
</g>
<g
   id="g12">
</g>
<g
   id="g14">
</g>
<g
   id="g16">
</g>
<g
   id="g18">
</g>
<g
   id="g20">
</g>
<g
   id="g22">
</g>
<g
   id="g24">
</g>
<g
   id="g26">
</g>
<g
   id="g28">
</g>
<g
   id="g30">
</g>
<g
   id="g32">
</g>
</svg>